<svg width="204" height="52" viewBox="0 0 204 52" fill="none" xmlns="http://www.w3.org/2000/svg">
<path d="M202.867 45.7055C202.867 48.4587 200.27 50.6889 197.058 50.6889H6.95054C3.73989 50.6889 1.13379 48.4587 1.13379 45.7055V5.96452C1.13379 3.21259 3.73989 0.974609 6.95054 0.974609H197.056C200.27 0.974609 202.866 3.21259 202.866 5.96452L202.867 45.7055Z" fill="black"/>
<path d="M196.444 1.03508C199.943 1.03508 202.789 3.46813 202.789 6.45817V45.2061C202.789 48.1961 199.943 50.6292 196.444 50.6292H7.55555C4.05733 50.6292 1.21078 48.1961 1.21078 45.2061V6.45817C1.21078 3.46813 4.05733 1.03508 7.55555 1.03508H196.444ZM196.444 0.000189759H7.55555C3.40189 0.000189759 0 2.9079 0 6.45817V45.2061C0 48.7564 3.40189 51.6641 7.55555 51.6641H196.444C200.598 51.6641 204 48.7564 204 45.2061V6.45817C204 2.9079 200.598 0.000189759 196.444 0.000189759Z" fill="#A6A6A6"/>
<path d="M45.5268 25.5524C45.483 21.3896 49.5147 19.3643 49.699 19.2701C47.4157 16.4247 43.8767 16.0359 42.6331 16.0049C39.6607 15.7375 36.7775 17.5251 35.2634 17.5251C33.719 17.5251 31.3874 16.0307 28.8744 16.0747C25.6406 16.1173 22.6154 17.7176 20.9562 20.2026C17.532 25.2695 20.0858 32.7156 23.3664 36.8112C25.0075 38.8171 26.9251 41.0567 29.435 40.9779C31.8906 40.8914 32.8078 39.6398 35.7711 39.6398C38.7072 39.6398 39.5685 40.9779 42.1284 40.9276C44.7637 40.8914 46.4229 38.9127 48.0066 36.8887C49.903 34.5897 50.6646 32.3255 50.6948 32.2093C50.6329 32.1912 45.5767 30.5418 45.5268 25.5524Z" fill="white"/>
<path d="M40.6913 13.3106C42.012 11.8989 42.9156 9.97832 42.6648 8.0293C40.7532 8.10163 38.3627 9.15944 36.986 10.5402C35.7681 11.7568 34.6801 13.7511 34.9612 15.6265C37.1084 15.7634 39.3132 14.7004 40.6913 13.3106Z" fill="white"/>
<path d="M81.0633 40.6905H77.6315L75.7517 35.6417H69.2177L67.427 40.6905H64.0859L70.5595 23.502H74.5579L81.0633 40.6905ZM75.185 33.5235L73.485 29.0352C73.3052 28.5766 72.9682 27.4969 72.4711 25.7971H72.4106C72.2127 26.5282 71.8938 27.6079 71.4556 29.0352L69.7858 33.5235H75.185Z" fill="white"/>
<path d="M97.7113 34.3411C97.7113 36.449 97.0448 38.1152 95.712 39.3383C94.5183 40.4271 93.0359 40.9709 91.2664 40.9709C89.3563 40.9709 87.9842 40.3845 87.1486 39.2117H87.0881V45.7407H83.8664V32.3766C83.8664 31.0514 83.8256 29.6914 83.7471 28.2964H86.5804L86.7602 30.261H86.8207C87.8951 28.7808 89.5256 28.042 91.7136 28.042C93.4242 28.042 94.8522 28.6193 95.9946 29.7753C97.14 30.9326 97.7113 32.4541 97.7113 34.3411ZM94.4291 34.4419C94.4291 33.2355 94.1118 32.241 93.4741 31.4583C92.7775 30.642 91.8421 30.2338 90.6695 30.2338C89.8746 30.2338 89.1523 30.4612 88.5071 30.9093C87.8603 31.3614 87.4372 31.9517 87.2392 32.6827C87.1395 33.0237 87.0896 33.3027 87.0896 33.5222V35.5888C87.0896 36.4903 87.413 37.2511 88.0598 37.8723C88.7065 38.4936 89.5467 38.8036 90.5803 38.8036C91.7937 38.8036 92.7382 38.4032 93.4136 37.605C94.0906 36.8055 94.4291 35.7515 94.4291 34.4419Z" fill="white"/>
<path d="M114.389 34.3411C114.389 36.449 113.723 38.1152 112.389 39.3383C111.196 40.4271 109.714 40.9709 107.945 40.9709C106.034 40.9709 104.662 40.3845 103.828 39.2117H103.768V45.7407H100.546V32.3766C100.546 31.0514 100.505 29.6914 100.427 28.2964H103.26L103.44 30.261H103.5C104.573 28.7808 106.204 28.042 108.393 28.042C110.102 28.042 111.53 28.6193 112.676 29.7753C113.817 30.9326 114.389 32.4541 114.389 34.3411ZM111.107 34.4419C111.107 33.2355 110.788 32.241 110.151 31.4583C109.454 30.642 108.522 30.2338 107.348 30.2338C106.551 30.2338 105.83 30.4612 105.184 30.9093C104.537 31.3614 104.115 31.9517 103.917 32.6827C103.819 33.0237 103.768 33.3027 103.768 33.5222V35.5888C103.768 36.4903 104.091 37.2511 104.735 37.8723C105.382 38.4923 106.222 38.8036 107.258 38.8036C108.472 38.8036 109.416 38.4032 110.092 37.605C110.769 36.8055 111.107 35.7515 111.107 34.4419Z" fill="white"/>
<path d="M133.036 35.8702C133.036 37.3323 132.442 38.5218 131.25 39.4402C129.94 40.4437 128.116 40.9449 125.772 40.9449C123.608 40.9449 121.874 40.5884 120.561 39.8741L121.307 37.579C122.721 38.31 124.273 38.6768 125.964 38.6768C127.178 38.6768 128.122 38.4418 128.801 37.9742C129.476 37.5066 129.813 36.8789 129.813 36.0962C129.813 35.3988 129.535 34.8111 128.977 34.3345C128.423 33.8579 127.497 33.4149 126.203 33.0054C122.682 31.883 120.923 30.2388 120.923 28.0767C120.923 26.6637 121.54 25.5051 122.774 24.6036C124.004 23.7008 125.645 23.25 127.698 23.25C129.527 23.25 131.048 23.5225 132.261 24.0663L131.456 26.3111C130.322 25.7841 129.041 25.5206 127.607 25.5206C126.474 25.5206 125.588 25.7596 124.953 26.2349C124.417 26.6598 124.148 27.1777 124.148 27.7913C124.148 28.4706 124.455 29.0325 125.071 29.4742C125.608 29.8824 126.582 30.3241 127.997 30.8007C129.727 31.3961 130.998 32.0923 131.815 32.8905C132.63 33.6861 133.036 34.6819 133.036 35.8702Z" fill="white"/>
<path d="M143.688 30.3628H140.137V36.3803C140.137 37.9109 140.763 38.6755 142.017 38.6755C142.593 38.6755 143.07 38.6329 143.448 38.5476L143.537 40.6387C142.903 40.8415 142.067 40.9435 141.032 40.9435C139.759 40.9435 138.765 40.6116 138.047 39.949C137.333 39.2851 136.973 38.1718 136.973 36.6076V30.3602H134.857V28.2936H136.973V26.0243L140.137 25.208V28.2936H143.688V30.3628Z" fill="white"/>
<path d="M159.711 34.3912C159.711 36.2963 159.073 37.8604 157.801 39.0835C156.466 40.3428 154.695 40.9706 152.488 40.9706C150.36 40.9706 148.666 40.3674 147.403 39.161C146.139 37.9547 145.508 36.4319 145.508 34.5965C145.508 32.6759 146.158 31.1028 147.462 29.8796C148.763 28.6552 150.519 28.043 152.726 28.043C154.854 28.043 156.566 28.6461 157.858 29.8538C159.094 31.0253 159.711 32.5377 159.711 34.3912ZM156.368 34.4803C156.368 33.3372 156.083 32.3569 155.504 31.5393C154.828 30.55 153.863 30.0566 152.612 30.0566C151.317 30.0566 150.333 30.5513 149.657 31.5393C149.079 32.3582 148.793 33.354 148.793 34.532C148.793 35.675 149.079 36.6553 149.657 37.4716C150.354 38.461 151.327 38.9544 152.583 38.9544C153.813 38.9544 154.778 38.4507 155.475 37.4458C156.069 36.6127 156.368 35.6221 156.368 34.4803Z" fill="white"/>
<path d="M170.183 30.7182C169.864 30.6678 169.524 30.642 169.167 30.642C168.034 30.642 167.158 31.0075 166.541 31.7398C166.005 32.3856 165.736 33.2019 165.736 34.1874V40.6906H162.515L162.546 32.1996C162.546 30.7711 162.505 29.4705 162.425 28.2977H165.231L165.349 30.6691H165.438C165.778 29.8541 166.314 29.198 167.049 28.7059C167.767 28.2629 168.542 28.042 169.377 28.042C169.675 28.042 169.944 28.0601 170.183 28.0924V30.7182Z" fill="white"/>
<path d="M184.591 33.9069C184.591 34.4003 184.553 34.8162 184.473 35.1559H174.808C174.846 36.3804 175.313 37.3168 176.21 37.9626C177.025 38.5399 178.078 38.8292 179.371 38.8292C180.802 38.8292 182.108 38.6342 183.282 38.2428L183.787 40.1544C182.415 40.6659 180.795 40.9203 178.926 40.9203C176.677 40.9203 174.912 40.3546 173.628 39.2244C172.346 38.0943 171.704 36.5767 171.704 34.6729C171.704 32.8039 172.301 31.2475 173.496 30.0063C174.747 28.6811 176.438 28.0186 178.566 28.0186C180.656 28.0186 182.238 28.6811 183.312 30.0063C184.163 31.059 184.591 32.3609 184.591 33.9069ZM181.519 33.1927C181.54 32.3764 181.33 31.6712 180.893 31.0758C180.336 30.3098 179.479 29.9275 178.326 29.9275C177.273 29.9275 176.416 30.3008 175.761 31.0499C175.225 31.6454 174.906 32.3596 174.808 33.1914H181.519V33.1927Z" fill="white"/>
<path d="M74.1197 12.9281C74.1197 14.4483 73.5863 15.5927 72.521 16.3612C71.5342 17.0702 70.1319 17.4254 68.3156 17.4254C67.4149 17.4254 66.6443 17.3919 65.999 17.3247V9.01843C66.8407 8.90219 67.7474 8.84277 68.7266 8.84277C70.4568 8.84277 71.7609 9.16438 72.6404 9.8076C73.6256 10.5348 74.1197 11.5745 74.1197 12.9281ZM72.45 12.9656C72.45 11.9801 72.1447 11.2245 71.5342 10.6975C70.9237 10.1718 70.0322 9.90834 68.8581 9.90834C68.3594 9.90834 67.9348 9.93676 67.5827 9.99617V16.3108C67.7776 16.3366 68.1342 16.3482 68.6525 16.3482C69.8644 16.3482 70.7998 16.0602 71.4587 15.4842C72.1175 14.9081 72.45 14.0686 72.45 12.9656Z" fill="white"/>
<path d="M82.9729 14.2556C82.9729 15.192 82.6601 15.9592 82.0345 16.5611C81.3787 17.1798 80.5098 17.4885 79.4248 17.4885C78.3791 17.4885 77.5465 17.1927 76.9254 16.5986C76.3059 16.0057 75.9961 15.2579 75.9961 14.3564C75.9961 13.4135 76.3149 12.6398 76.9556 12.0392C77.5964 11.4386 78.4577 11.1377 79.5427 11.1377C80.5884 11.1377 81.4285 11.4335 82.0647 12.0263C82.6692 12.6024 82.9729 13.3463 82.9729 14.2556ZM81.3303 14.2995C81.3303 13.7377 81.1883 13.2559 80.9057 12.8542C80.5733 12.3686 80.1003 12.1258 79.4853 12.1258C78.8491 12.1258 78.3655 12.3686 78.0331 12.8542C77.749 13.2559 77.6085 13.7454 77.6085 14.3241C77.6085 14.8859 77.7505 15.3677 78.0331 15.7694C78.3761 16.255 78.8536 16.4978 79.4701 16.4978C80.0746 16.4978 80.5491 16.2511 80.8906 15.7564C81.1837 15.347 81.3303 14.8614 81.3303 14.2995Z" fill="white"/>
<path d="M94.8443 11.2617L92.6154 17.3503H91.1648L90.2415 14.7064C90.0073 14.0464 89.8169 13.3903 89.6688 12.7393H89.6401C89.5025 13.4084 89.3121 14.0632 89.0673 14.7064L88.0866 17.3503H86.6193L84.5234 11.2617H86.1509L86.9563 14.1562C87.1513 14.8407 87.3114 15.493 87.4399 16.1104H87.4686C87.5865 15.6015 87.7814 14.9531 88.0564 14.1691L89.0673 11.263H90.3578L91.3265 14.1071C91.5607 14.8007 91.7511 15.4685 91.8977 16.1117H91.9415C92.0488 15.4852 92.2105 14.8175 92.425 14.1071L93.2894 11.263H94.8443V11.2617Z" fill="white"/>
<path d="M103.054 17.3502H101.471V13.8629C101.471 12.7883 100.993 12.251 100.035 12.251C99.5653 12.251 99.186 12.3983 98.8913 12.694C98.5997 12.9898 98.4516 13.3385 98.4516 13.7376V17.349H96.868V13.0014C96.868 12.4667 96.8483 11.8868 96.8105 11.2591H98.2023L98.2763 12.211H98.3201C98.5045 11.9152 98.7795 11.6711 99.1407 11.4761C99.5698 11.2487 100.05 11.1338 100.576 11.1338C101.241 11.1338 101.794 11.3172 102.234 11.6853C102.781 12.1361 103.054 12.809 103.054 13.7028V17.3502Z" fill="white"/>
<path d="M107.422 17.3501H105.84V8.46777H107.422V17.3501Z" fill="white"/>
<path d="M116.745 14.2556C116.745 15.192 116.433 15.9592 115.807 16.5611C115.151 17.1798 114.281 17.4885 113.197 17.4885C112.15 17.4885 111.317 17.1927 110.698 16.5986C110.078 16.0057 109.769 15.2579 109.769 14.3564C109.769 13.4135 110.087 12.6398 110.728 12.0392C111.369 11.4386 112.23 11.1377 113.314 11.1377C114.361 11.1377 115.199 11.4335 115.837 12.0263C116.442 12.6024 116.745 13.3463 116.745 14.2556ZM115.101 14.2995C115.101 13.7377 114.959 13.2559 114.677 12.8542C114.346 12.3686 113.871 12.1258 113.258 12.1258C112.62 12.1258 112.136 12.3686 111.806 12.8542C111.521 13.2559 111.381 13.7454 111.381 14.3241C111.381 14.8859 111.523 15.3677 111.806 15.7694C112.149 16.255 112.626 16.4978 113.243 16.4978C113.847 16.4978 114.32 16.2511 114.662 15.7564C114.956 15.347 115.101 14.8614 115.101 14.2995Z" fill="white"/>
<path d="M124.41 17.3503H122.988L122.87 16.6489H122.826C122.339 17.2082 121.646 17.4885 120.745 17.4885C120.073 17.4885 119.529 17.3038 119.119 16.937C118.747 16.6037 118.562 16.1891 118.562 15.697C118.562 14.9531 118.924 14.3861 119.654 13.9934C120.382 13.6008 121.407 13.4083 122.726 13.4174V13.3037C122.726 12.5016 122.234 12.1012 121.247 12.1012C120.544 12.1012 119.925 12.2523 119.39 12.552L119.068 11.6634C119.73 11.3134 120.547 11.1377 121.511 11.1377C123.373 11.1377 124.307 11.9772 124.307 13.6563V15.8985C124.307 16.5069 124.342 16.9912 124.41 17.3503ZM122.765 15.2579V14.3189C121.019 14.2931 120.145 14.7025 120.145 15.5459C120.145 15.8636 120.245 16.1013 120.449 16.2602C120.653 16.419 120.913 16.4978 121.223 16.4978C121.57 16.4978 121.895 16.4035 122.191 16.2163C122.489 16.0277 122.672 15.7887 122.74 15.4955C122.756 15.4297 122.765 15.3496 122.765 15.2579Z" fill="white"/>
<path d="M133.408 17.3501H132.003L131.929 16.3723H131.885C131.436 17.1163 130.672 17.4883 129.597 17.4883C128.739 17.4883 128.024 17.2003 127.458 16.6242C126.891 16.0482 126.608 15.3003 126.608 14.382C126.608 13.3965 126.915 12.5983 127.532 11.9887C128.129 11.4204 128.86 11.1362 129.73 11.1362C130.687 11.1362 131.356 11.4113 131.737 11.9628H131.767V8.46777H133.352V15.7098C133.352 16.3026 133.371 16.8489 133.408 17.3501ZM131.767 14.7824V13.7672C131.767 13.5915 131.752 13.4495 131.723 13.341C131.634 13.0155 131.442 12.7417 131.151 12.5208C130.856 12.2999 130.501 12.1889 130.091 12.1889C129.501 12.1889 129.038 12.3891 128.698 12.7907C128.361 13.1924 128.191 13.7052 128.191 14.3316C128.191 14.9335 128.352 15.4217 128.677 15.7976C129.02 16.198 129.483 16.3982 130.061 16.3982C130.581 16.3982 130.997 16.2316 131.312 15.897C131.618 15.5883 131.767 15.2164 131.767 14.7824Z" fill="white"/>
<path d="M146.952 14.2556C146.952 15.192 146.64 15.9592 146.014 16.5611C145.358 17.1798 144.491 17.4885 143.404 17.4885C142.36 17.4885 141.528 17.1927 140.905 16.5986C140.285 16.0057 139.976 15.2579 139.976 14.3564C139.976 13.4135 140.294 12.6398 140.935 12.0392C141.576 11.4386 142.437 11.1377 143.524 11.1377C144.568 11.1377 145.41 11.4335 146.044 12.0263C146.649 12.6024 146.952 13.3463 146.952 14.2556ZM145.311 14.2995C145.311 13.7377 145.169 13.2559 144.887 12.8542C144.553 12.3686 144.081 12.1258 143.465 12.1258C142.83 12.1258 142.347 12.3686 142.013 12.8542C141.728 13.2559 141.588 13.7454 141.588 14.3241C141.588 14.8859 141.73 15.3677 142.013 15.7694C142.356 16.255 142.833 16.4978 143.45 16.4978C144.054 16.4978 144.53 16.2511 144.872 15.7564C145.163 15.347 145.311 14.8614 145.311 14.2995Z" fill="white"/>
<path d="M155.467 17.3502H153.885V13.8629C153.885 12.7883 153.407 12.251 152.448 12.251C151.978 12.251 151.599 12.3983 151.305 12.694C151.012 12.9898 150.866 13.3385 150.866 13.7376V17.349H149.281V13.0014C149.281 12.4667 149.262 11.8868 149.225 11.2591H150.615L150.689 12.211H150.733C150.919 11.9152 151.194 11.6711 151.553 11.4761C151.984 11.2487 152.463 11.1338 152.99 11.1338C153.654 11.1338 154.207 11.3172 154.646 11.6853C155.195 12.1361 155.467 12.809 155.467 13.7028V17.3502Z" fill="white"/>
<path d="M166.125 12.2754H164.382V15.2331C164.382 15.9848 164.691 16.3607 165.305 16.3607C165.589 16.3607 165.825 16.34 166.011 16.2974L166.051 17.3242C165.739 17.425 165.328 17.4753 164.821 17.4753C164.196 17.4753 163.709 17.3126 163.357 16.9871C163.004 16.6616 162.828 16.114 162.828 15.3455V12.2754H161.787V11.2615H162.828V10.1455L164.38 9.74512V11.2602H166.124V12.2754H166.125Z" fill="white"/>
<path d="M174.509 17.3501H172.924V13.8886C172.924 12.7972 172.446 12.2509 171.49 12.2509C170.755 12.2509 170.253 12.5673 169.978 13.2002C169.932 13.3332 169.904 13.496 169.904 13.6871V17.3488H168.322V8.46777H169.904V12.1372H169.935C170.433 11.4694 171.148 11.1362 172.074 11.1362C172.73 11.1362 173.273 11.3196 173.703 11.6877C174.24 12.1462 174.509 12.8282 174.509 13.7297V17.3501Z" fill="white"/>
<path d="M183.157 14.0179C183.157 14.2607 183.136 14.4648 183.098 14.6314H178.349C178.37 15.2333 178.597 15.6918 179.036 16.0095C179.438 16.2937 179.957 16.4357 180.591 16.4357C181.294 16.4357 181.935 16.3402 182.512 16.1477L182.76 17.088C182.084 17.3386 181.29 17.4638 180.369 17.4638C179.266 17.4638 178.397 17.1861 177.769 16.6308C177.137 16.0754 176.824 15.3301 176.824 14.395C176.824 13.4767 177.116 12.7121 177.704 12.1024C178.317 11.4515 179.147 11.126 180.194 11.126C181.219 11.126 181.997 11.4515 182.523 12.1024C182.947 12.6191 183.157 13.2584 183.157 14.0179ZM181.646 13.6678C181.658 13.2662 181.554 12.92 181.339 12.6281C181.064 12.2522 180.646 12.0637 180.079 12.0637C179.562 12.0637 179.141 12.2471 178.819 12.6152C178.556 12.9084 178.4 13.2584 178.349 13.6678H181.646Z" fill="white"/>
</svg>
