<svg width="72" height="72" viewBox="0 0 72 72" fill="none" xmlns="http://www.w3.org/2000/svg">
<path d="M62.5204 13.8301C60.9881 12.2971 59.1688 11.081 57.1664 10.2514C55.164 9.42167 53.0178 8.99463 50.8504 8.99463C48.6829 8.99463 46.5367 9.42167 44.5343 10.2514C42.5319 11.081 40.7126 12.2971 39.1804 13.8301L36.0004 17.0101L32.8204 13.8301C29.7253 10.735 25.5275 8.99623 21.1504 8.99623C16.7733 8.99623 12.5754 10.735 9.48036 13.8301C6.38528 16.9252 4.64648 21.123 4.64648 25.5001C4.64648 29.8772 6.38528 34.075 9.48036 37.1701L12.6604 40.3501L36.0004 63.6901L59.3404 40.3501L62.5204 37.1701C64.0533 35.6378 65.2694 33.8185 66.0991 31.8162C66.9288 29.8138 67.3558 27.6676 67.3558 25.5001C67.3558 23.3326 66.9288 21.1864 66.0991 19.184C65.2694 17.1817 64.0533 15.3624 62.5204 13.8301V13.8301Z" stroke="#34656A" stroke-width="7" stroke-linecap="round" stroke-linejoin="round"/>
</svg>
