<svg width="204" height="52" viewBox="0 0 204 52" fill="none" xmlns="http://www.w3.org/2000/svg">
<path d="M196.444 51.6641H7.55556C3.40189 51.6641 0 48.7564 0 45.2061V6.45817C0 2.90789 3.40189 0.000185035 7.55556 0.000185035H196.444C200.598 0.000185035 204 2.90789 204 6.45817V45.2061C204 48.7564 200.598 51.6641 196.444 51.6641Z" fill="black"/>
<path d="M196.444 1.03508C199.943 1.03508 202.789 3.46812 202.789 6.45817V45.2061C202.789 48.1961 199.943 50.6292 196.444 50.6292H7.55556C4.05733 50.6292 1.21078 48.1961 1.21078 45.2061V6.45817C1.21078 3.46812 4.05733 1.03508 7.55556 1.03508H196.444ZM196.444 0.000185035H7.55556C3.40189 0.000185035 0 2.90789 0 6.45817V45.2061C0 48.7564 3.40189 51.6641 7.55556 51.6641H196.444C200.598 51.6641 204 48.7564 204 45.2061V6.45817C204 2.90789 200.598 0.000185035 196.444 0.000185035Z" fill="#A6A6A6"/>
<path d="M71.6532 13.2312C71.6532 14.3097 71.2754 15.1734 70.5312 15.8176C69.6755 16.5813 68.5611 16.9655 67.1954 16.9655C65.8902 16.9655 64.7757 16.5748 63.8615 15.8047C62.9454 15.0233 62.4883 14.0643 62.4883 12.9163C62.4883 11.7684 62.9454 10.8094 63.8615 10.0345C64.7757 9.2579 65.8902 8.86719 67.1954 8.86719C67.8452 8.86719 68.4647 8.98182 69.0559 9.19493C69.6453 9.40966 70.1251 9.70027 70.4726 10.0587L69.6831 10.74C69.0767 10.1281 68.2513 9.8262 67.1954 9.8262C66.2434 9.8262 65.4179 10.1103 64.7172 10.6835C64.0239 11.2583 63.6764 12.0025 63.6764 12.9163C63.6764 13.8301 64.0239 14.5809 64.7172 15.1556C65.4179 15.7223 66.2434 16.0129 67.1954 16.0129C68.206 16.0129 69.056 15.7223 69.7265 15.1492C70.1685 14.7698 70.4197 14.2467 70.4858 13.5783H67.1954V12.6451H71.5852C71.6381 12.8469 71.6532 13.0423 71.6532 13.2312Z" fill="white" stroke="white" stroke-width="0.16" stroke-miterlimit="10"/>
<path d="M78.617 9.99586H74.4935V12.4499H78.2108V13.3831H74.4935V15.8371H78.617V16.788H73.3262V9.04492H78.617V9.99586Z" fill="white" stroke="white" stroke-width="0.16" stroke-miterlimit="10"/>
<path d="M83.5325 16.788H82.3652V9.99586H79.8359V9.04492H86.0636V9.99586H83.5325V16.788Z" fill="white" stroke="white" stroke-width="0.16" stroke-miterlimit="10"/>
<path d="M90.5703 16.788V9.04492H91.7355V16.788H90.5703Z" fill="white" stroke="white" stroke-width="0.16" stroke-miterlimit="10"/>
<path d="M96.9016 16.788H95.7437V9.99586H93.2051V9.04492H99.4403V9.99586H96.9016V16.788Z" fill="white" stroke="white" stroke-width="0.16" stroke-miterlimit="10"/>
<path d="M111.231 15.7918C110.338 16.5748 109.231 16.9655 107.911 16.9655C106.583 16.9655 105.476 16.5748 104.583 15.7918C103.691 15.0103 103.247 14.0513 103.247 12.9163C103.247 11.7814 103.691 10.8223 104.583 10.0409C105.476 9.2579 106.583 8.86719 107.911 8.86719C109.224 8.86719 110.33 9.2579 111.224 10.0474C112.123 10.8353 112.567 11.7878 112.567 12.9163C112.567 14.0513 112.123 15.0103 111.231 15.7918ZM105.446 15.1427C106.118 15.7223 106.936 16.0129 107.911 16.0129C108.878 16.0129 109.703 15.7223 110.368 15.1427C111.039 14.5631 111.379 13.8188 111.379 12.9163C111.379 12.0138 111.039 11.2696 110.368 10.69C109.703 10.1104 108.878 9.81974 107.911 9.81974C106.936 9.81974 106.118 10.1104 105.446 10.69C104.775 11.2696 104.435 12.0138 104.435 12.9163C104.435 13.8188 104.775 14.5631 105.446 15.1427Z" fill="white" stroke="white" stroke-width="0.16" stroke-miterlimit="10"/>
<path d="M114.204 16.788V9.04492H115.621L120.026 15.067H120.077L120.026 13.5784V9.04492H121.191V16.788H119.975L115.362 10.4689H115.311L115.362 11.9639V16.788H114.204Z" fill="white" stroke="white" stroke-width="0.16" stroke-miterlimit="10"/>
<path d="M102.959 28.0957C99.4099 28.0957 96.5105 30.4044 96.5105 33.5898C96.5105 36.7494 99.4099 39.0824 102.959 39.0824C106.516 39.0824 109.415 36.7494 109.415 33.5898C109.415 30.4044 106.516 28.0957 102.959 28.0957ZM102.959 36.9189C101.012 36.9189 99.3363 35.545 99.3363 33.5898C99.3363 31.6089 101.012 30.2591 102.959 30.2591C104.907 30.2591 106.59 31.6089 106.59 33.5898C106.59 35.545 104.907 36.9189 102.959 36.9189ZM88.8888 28.0957C85.3321 28.0957 82.4402 30.4044 82.4402 33.5898C82.4402 36.7494 85.3321 39.0824 88.8888 39.0824C92.4437 39.0824 95.3375 36.7494 95.3375 33.5898C95.3375 30.4044 92.4437 28.0957 88.8888 28.0957ZM88.8888 36.9189C86.9395 36.9189 85.2584 35.545 85.2584 33.5898C85.2584 31.6089 86.9395 30.2591 88.8888 30.2591C90.8363 30.2591 92.5117 31.6089 92.5117 33.5898C92.5117 35.545 90.8363 36.9189 88.8888 36.9189ZM72.1457 29.7796V32.1142H78.6681C78.4773 33.4187 77.9673 34.3777 77.1853 35.0461C76.2333 35.8534 74.7505 36.7494 72.1457 36.7494C68.1318 36.7494 64.9887 33.9806 64.9887 30.5498C64.9887 27.119 68.1318 24.3501 72.1457 24.3501C74.3161 24.3501 75.8952 25.075 77.0606 26.0146L78.9854 24.3695C77.3553 23.0391 75.1868 22.0171 72.1457 22.0171C66.6415 22.0171 62.0156 25.8451 62.0156 30.5498C62.0156 35.2544 66.6415 39.0824 72.1457 39.0824C75.1207 39.0824 77.3553 38.2493 79.112 36.6865C80.9121 35.1478 81.4731 32.9844 81.4731 31.2375C81.4731 30.6951 81.4202 30.1962 81.3257 29.7796H72.1457ZM140.61 31.5895C140.08 30.3609 138.442 28.0957 135.106 28.0957C131.801 28.0957 129.048 30.3221 129.048 33.5898C129.048 36.6671 131.772 39.0824 135.423 39.0824C138.376 39.0824 140.08 37.5437 140.78 36.6477L138.589 35.3997C137.858 36.3135 136.863 36.9189 135.423 36.9189C133.994 36.9189 132.968 36.3587 132.311 35.2544L140.907 32.2143L140.61 31.5895ZM131.846 33.4187C131.772 31.3005 133.771 30.2156 135.202 30.2156C136.324 30.2156 137.276 30.6951 137.594 31.3812L131.846 33.4187ZM124.859 38.7482H127.685V22.6032H124.859V38.7482ZM120.231 29.3195H120.137C119.502 28.6769 118.291 28.0957 116.758 28.0957C113.539 28.0957 110.596 30.511 110.596 33.6076C110.596 36.6865 113.539 39.0824 116.758 39.0824C118.291 39.0824 119.502 38.4963 120.137 37.8344H120.231V38.6222C120.231 40.7227 118.918 41.8512 116.801 41.8512C115.074 41.8512 114.003 40.7857 113.562 39.8896L111.104 40.7663C111.812 42.2226 113.688 44.0146 116.801 44.0146C120.114 44.0146 122.91 42.3485 122.91 38.2945V28.4299H120.231V29.3195ZM116.999 36.9189C115.052 36.9189 113.422 35.5256 113.422 33.6076C113.422 31.6718 115.052 30.2591 116.999 30.2591C118.918 30.2591 120.431 31.6718 120.431 33.6076C120.431 35.5256 118.918 36.9189 116.999 36.9189ZM153.84 22.6032H147.082V38.7482H149.9V32.6308H153.84C156.97 32.6308 160.039 30.6951 160.039 27.6162C160.039 24.539 156.962 22.6032 153.84 22.6032ZM153.914 30.3851H149.9V24.849H153.914C156.018 24.849 157.219 26.3424 157.219 27.6162C157.219 28.8658 156.018 30.3851 153.914 30.3851ZM171.335 28.065C169.299 28.065 167.181 28.8335 166.311 30.5368L168.811 31.4329C169.35 30.5368 170.34 30.2462 171.386 30.2462C172.848 30.2462 174.331 30.997 174.353 32.3225V32.492C173.843 32.2401 172.752 31.8672 171.409 31.8672C168.715 31.8672 165.971 33.1346 165.971 35.4998C165.971 37.6632 168.177 39.0565 170.657 39.0565C172.553 39.0565 173.6 38.3252 174.257 37.4743H174.353V38.7223H177.075V32.5291C177.075 29.6666 174.574 28.065 171.335 28.065ZM170.995 36.9125C170.073 36.9125 168.789 36.5218 168.789 35.545C168.789 34.2954 170.391 33.8159 171.777 33.8159C173.018 33.8159 173.6 34.05 174.353 34.3583C174.132 35.8534 172.627 36.9125 170.995 36.9125ZM186.992 28.4186L183.753 35.4175H183.656L180.307 28.4186H177.268L182.3 38.1992L179.429 43.6417H182.374L190.128 28.4186H186.992ZM161.588 38.7482H164.414V22.6032H161.588V38.7482Z" fill="white"/>
<path d="M15.7682 9.73703C15.3243 10.1342 15.0674 10.7526 15.0674 11.5533V40.117C15.0674 40.9178 15.3243 41.5362 15.7682 41.9333L15.8777 42.0205L34.6041 26.0208V25.6431L15.8777 9.64339L15.7682 9.73703Z" fill="url(#paint0_linear_52_313)"/>
<path d="M40.8397 31.3564L34.6045 26.0205V25.6427L40.8473 20.3068L40.987 20.3763L48.3802 23.9717C50.49 24.9921 50.49 26.6712 48.3802 27.698L40.987 31.287L40.8397 31.3564Z" fill="url(#paint1_linear_52_313)"/>
<path d="M40.9871 31.2874L34.6046 25.8321L15.7686 41.9334C16.4693 42.5631 17.6121 42.639 18.9117 42.0093L40.9871 31.2874Z" fill="url(#paint2_linear_52_313)"/>
<path d="M40.9871 20.3767L18.9117 9.65478C17.6121 9.03159 16.4693 9.10747 15.7686 9.73712L34.6046 25.832L40.9871 20.3767Z" fill="url(#paint3_linear_52_313)"/>
<defs>
<linearGradient id="paint0_linear_52_313" x1="32.9415" y1="40.4145" x2="11.5297" y2="15.3636" gradientUnits="userSpaceOnUse">
<stop stop-color="#00A0FF"/>
<stop offset="0.0066" stop-color="#00A1FF"/>
<stop offset="0.2601" stop-color="#00BEFF"/>
<stop offset="0.5122" stop-color="#00D2FF"/>
<stop offset="0.7604" stop-color="#00DFFF"/>
<stop offset="1" stop-color="#00E3FF"/>
</linearGradient>
<linearGradient id="paint1_linear_52_313" x1="51.1276" y1="25.8298" x2="14.5634" y2="25.8298" gradientUnits="userSpaceOnUse">
<stop stop-color="#FFE000"/>
<stop offset="0.4087" stop-color="#FFBD00"/>
<stop offset="0.7754" stop-color="#FFA500"/>
<stop offset="1" stop-color="#FF9C00"/>
</linearGradient>
<linearGradient id="paint2_linear_52_313" x1="37.5165" y1="22.8664" x2="8.48035" y2="-11.1045" gradientUnits="userSpaceOnUse">
<stop stop-color="#FF3A44"/>
<stop offset="1" stop-color="#C31162"/>
</linearGradient>
<linearGradient id="paint3_linear_52_313" x1="11.0271" y1="51.4364" x2="23.9931" y2="36.267" gradientUnits="userSpaceOnUse">
<stop stop-color="#32A071"/>
<stop offset="0.0685" stop-color="#2DA771"/>
<stop offset="0.4762" stop-color="#15CF74"/>
<stop offset="0.8009" stop-color="#06E775"/>
<stop offset="1" stop-color="#00F076"/>
</linearGradient>
</defs>
</svg>
