<svg width="72" height="72" viewBox="0 0 72 72" fill="none" xmlns="http://www.w3.org/2000/svg">
<path d="M33 27H45C45.7957 27 46.5587 26.6839 47.1213 26.1213C47.6839 25.5587 48 24.7957 48 24C48 23.2044 47.6839 22.4413 47.1213 21.8787C46.5587 21.3161 45.7957 21 45 21H39V18C39 17.2044 38.6839 16.4413 38.1213 15.8787C37.5587 15.3161 36.7957 15 36 15C35.2044 15 34.4413 15.3161 33.8787 15.8787C33.3161 16.4413 33 17.2044 33 18V21C30.6131 21 28.3239 21.9482 26.6361 23.636C24.9482 25.3239 24 27.6131 24 30C24 32.387 24.9482 34.6761 26.6361 36.364C28.3239 38.0518 30.6131 39 33 39H39C39.7957 39 40.5587 39.3161 41.1213 39.8787C41.6839 40.4413 42 41.2044 42 42C42 42.7957 41.6839 43.5587 41.1213 44.1213C40.5587 44.6839 39.7957 45 39 45H27C26.2044 45 25.4413 45.3161 24.8787 45.8787C24.3161 46.4413 24 47.2044 24 48C24 48.7957 24.3161 49.5587 24.8787 50.1213C25.4413 50.6839 26.2044 51 27 51H33V54C33 54.7957 33.3161 55.5587 33.8787 56.1213C34.4413 56.6839 35.2044 57 36 57C36.7957 57 37.5587 56.6839 38.1213 56.1213C38.6839 55.5587 39 54.7957 39 54V51C41.387 51 43.6761 50.0518 45.364 48.364C47.0518 46.6761 48 44.387 48 42C48 39.6131 47.0518 37.3239 45.364 35.636C43.6761 33.9482 41.387 33 39 33H33C32.2044 33 31.4413 32.6839 30.8787 32.1213C30.3161 31.5587 30 30.7957 30 30C30 29.2044 30.3161 28.4413 30.8787 27.8787C31.4413 27.3161 32.2044 27 33 27ZM36 3C29.4732 3 23.093 4.93542 17.6662 8.5615C12.2394 12.1876 8.00968 17.3415 5.51199 23.3714C3.0143 29.4014 2.36079 36.0366 3.6341 42.438C4.90741 48.8394 8.05036 54.7194 12.6655 59.3345C17.2806 63.9497 23.1607 67.0926 29.562 68.3659C35.9634 69.6392 42.5986 68.9857 48.6286 66.488C54.6585 63.9903 59.8124 59.7606 63.4385 54.3338C67.0646 48.907 69 42.5268 69 36C69 27.2479 65.5232 18.8542 59.3345 12.6655C53.1458 6.47678 44.7522 3 36 3ZM36 63C30.6599 63 25.4397 61.4165 20.9996 58.4497C16.5595 55.4829 13.0988 51.2661 11.0553 46.3325C9.0117 41.3988 8.47701 35.9701 9.51881 30.7326C10.5606 25.4951 13.1321 20.6841 16.9081 16.9081C20.6841 13.1321 25.4951 10.5606 30.7326 9.5188C35.9701 8.477 41.3989 9.01169 46.3325 11.0553C51.2661 13.0988 55.4829 16.5595 58.4497 20.9996C61.4165 25.4397 63 30.6599 63 36C63 43.1608 60.1554 50.0284 55.0919 55.0919C50.0284 60.1554 43.1609 63 36 63Z" fill="#34656A" stroke="#34656A"/>
</svg>
