<svg width="72" height="72" viewBox="0 0 72 72" fill="none" xmlns="http://www.w3.org/2000/svg">
<path d="M37.3537 64.4773L37.3261 64.4977L37.3 64.5201C36.9377 64.8299 36.4767 65.0002 36 65.0002C35.5244 65.0002 35.0644 64.8307 34.7025 64.5222C34.7017 64.5215 34.7008 64.5208 34.7 64.5201L34.6999 64.52C34.2305 64.1132 28.7908 59.3991 23.466 52.7948C18.0813 46.1163 13 37.7283 13 30C13 23.9 15.4232 18.0499 19.7365 13.7365C24.0499 9.42321 29.9 7 36 7C42.1 7 47.9501 9.42321 52.2635 13.7365C56.5768 18.0499 59 23.9 59 30C59 37.7303 53.9538 46.1194 48.5892 52.7962C43.2526 59.4381 37.8001 64.1457 37.3537 64.4773ZM35.3155 59.679L35.9983 60.3201L36.6827 59.6807C39.9119 56.6638 44.4617 51.8803 48.213 46.5708C51.9352 41.3023 55 35.3387 55 30C55 24.9609 52.9982 20.1282 49.435 16.565C45.8718 13.0018 41.0391 11 36 11C30.9609 11 26.1282 13.0018 22.565 16.565C19.0018 20.1282 17 24.9609 17 30C17 35.339 20.0651 41.2953 23.7872 46.5598C27.5384 51.8654 32.0879 56.6484 35.3155 59.679ZM29.8887 20.8538C31.6977 19.6451 33.8244 19 36 19C38.9174 19 41.7153 20.1589 43.7782 22.2218C45.8411 24.2847 47 27.0826 47 30C47 32.1756 46.3549 34.3023 45.1462 36.1113C43.9375 37.9202 42.2195 39.3301 40.2095 40.1627C38.1995 40.9952 35.9878 41.2131 33.854 40.7886C31.7202 40.3642 29.7602 39.3166 28.2218 37.7782C26.6834 36.2398 25.6358 34.2798 25.2114 32.146C24.7869 30.0122 25.0048 27.8005 25.8373 25.7905C26.6699 23.7805 28.0798 22.0625 29.8887 20.8538ZM32.111 35.8203C33.2622 36.5895 34.6155 37 36 37C37.8565 37 39.637 36.2625 40.9497 34.9497C42.2625 33.637 43 31.8565 43 30C43 28.6155 42.5895 27.2622 41.8203 26.111C41.0511 24.9599 39.9579 24.0627 38.6788 23.5328C37.3997 23.003 35.9922 22.8644 34.6344 23.1345C33.2765 23.4046 32.0292 24.0713 31.0503 25.0503C30.0713 26.0292 29.4046 27.2765 29.1345 28.6344C28.8644 29.9922 29.003 31.3997 29.5328 32.6788C30.0627 33.9579 30.9599 35.0511 32.111 35.8203Z" fill="#34656A" stroke="#34656A" stroke-width="2"/>
</svg>
